<svg width="23" height="280" viewBox="0 0 23 280" fill="none" xmlns="http://www.w3.org/2000/svg">
<path d="M19 0.5L11 10.0525L11 271.924L19 279.5" stroke="#E4E4E4"/>
<rect width="141" height="23" transform="translate(0 210.5) rotate(-90)" fill="white"/>
<path d="M19 189.861L4.8 189.861L4.8 185.041C4.8 183.534 5.12 182.281 5.76 181.281C6.38666 180.267 7.24 179.507 8.32 179.001C9.38666 178.494 10.5733 178.241 11.88 178.241C13.32 178.241 14.5733 178.521 15.64 179.081C16.7067 179.641 17.5333 180.427 18.12 181.441C18.7067 182.454 19 183.654 19 185.041L19 189.861ZM11.88 179.641C10.7467 179.641 9.74 179.854 8.86 180.281C7.98 180.694 7.29333 181.307 6.8 182.121C6.29333 182.921 6.04 183.894 6.04 185.041L6.04 188.461L17.76 188.461L17.76 185.041C17.76 183.867 17.5 182.881 16.98 182.081C16.46 181.281 15.76 180.674 14.88 180.261C14 179.847 13 179.641 11.88 179.641ZM17.76 160.024L19 160.024L19 169.564L4.8 169.564L4.8 160.204L6.04 160.204L6.04 168.164L11.16 168.164L11.16 161.224L12.34 161.224L12.34 168.164L17.76 168.164L17.76 160.024ZM7.46 143.154C7.02 143.554 6.66 144.088 6.38 144.754C6.08666 145.421 5.94 146.181 5.94 147.034C5.94 148.288 6.18 149.201 6.66 149.774C7.12666 150.348 7.76666 150.634 8.58 150.634C9.14 150.634 9.58 150.494 9.9 150.214C10.22 149.934 10.4867 149.508 10.7 148.934C10.9 148.348 11.1 147.601 11.3 146.694C11.5133 145.681 11.7667 144.808 12.06 144.074C12.3533 143.341 12.7533 142.774 13.26 142.374C13.7533 141.974 14.4267 141.774 15.28 141.774C16.1467 141.774 16.8667 141.994 17.44 142.434C18.0133 142.874 18.44 143.481 18.72 144.254C18.9867 145.028 19.12 145.908 19.12 146.894C19.12 149.108 18.4333 151.008 17.06 152.594L15.92 151.894C16.4533 151.388 16.9133 150.694 17.3 149.814C17.6867 148.921 17.88 147.934 17.88 146.854C17.88 145.734 17.6733 144.854 17.26 144.214C16.8467 143.574 16.2333 143.254 15.42 143.254C14.8333 143.254 14.3667 143.414 14.02 143.734C13.66 144.054 13.3667 144.534 13.14 145.174C12.9133 145.814 12.6933 146.601 12.48 147.534C12.2533 148.521 12 149.354 11.72 150.034C11.44 150.701 11.0733 151.208 10.62 151.554C10.1667 151.901 9.55333 152.074 8.78 152.074C7.9 152.074 7.16 151.861 6.56 151.434C5.94666 150.994 5.48666 150.394 5.18 149.634C4.86 148.874 4.7 148.001 4.7 147.014C4.7 146.081 4.84666 145.241 5.14 144.494C5.42 143.748 5.82 143.074 6.34 142.474L7.46 143.154ZM19 133.306L4.8 133.306L4.8 131.906L19 131.906L19 133.306ZM19.1 116.645C19.1 117.605 18.9 118.492 18.5 119.305C18.0867 120.105 17.5333 120.805 16.84 121.405C16.1467 122.005 15.3733 122.472 14.52 122.805C13.6533 123.125 12.7733 123.285 11.88 123.285C10.9333 123.285 10.0333 123.125 9.18 122.805C8.31333 122.472 7.54666 122.012 6.88 121.425C6.2 120.838 5.66666 120.145 5.28 119.345C4.89333 118.545 4.7 117.672 4.7 116.725C4.7 115.325 4.98666 114.185 5.55999 113.305C6.13333 112.425 6.88 111.758 7.8 111.305L8.51999 112.385C7.63999 112.838 6.99333 113.445 6.57999 114.205C6.16666 114.965 5.96 115.812 5.96 116.745C5.96 117.532 6.12666 118.245 6.46 118.885C6.79333 119.512 7.24 120.052 7.8 120.505C8.36 120.945 8.99333 121.285 9.7 121.525C10.4067 121.765 11.14 121.885 11.9 121.885C12.7 121.885 13.46 121.752 14.18 121.485C14.8867 121.218 15.52 120.845 16.08 120.365C16.6267 119.872 17.06 119.305 17.38 118.665C17.6867 118.012 17.84 117.305 17.84 116.545C17.84 115.732 17.6467 114.958 17.26 114.225C16.8733 113.478 16.2733 112.765 15.46 112.085L13.1 112.085L13.1 115.245L12.02 115.245L12.02 110.905L19 110.905L19 112.085L16.92 112.085C18.3733 113.392 19.1 114.912 19.1 116.645ZM7.37999 100.629L19 100.629L19 102.029L4.79999 102.029L4.79999 100.869L16.64 91.5486L4.81999 91.5486L4.81999 90.1486L19 90.1486L19 91.4486L7.37999 100.629Z" fill="#CACACA"/>
</svg>
