<svg width="64" height="48" viewBox="0 0 64 48" fill="none" xmlns="http://www.w3.org/2000/svg">
<path d="M51.611 20.083H50V20H32V28H43.303C41.654 32.657 37.223 36 32 36C25.373 36 20 30.627 20 24C20 17.373 25.373 12 32 12C35.059 12 37.842 13.154 39.961 15.039L45.618 9.382C42.046 6.053 37.268 4 32 4C20.955 4 12 12.955 12 24C12 35.045 20.955 44 32 44C43.045 44 52 35.045 52 24C52 22.659 51.862 21.35 51.611 20.083Z" fill="#FFC107"/>
<path d="M14.306 14.691L20.877 19.51C22.655 15.108 26.961 12 32 12C35.059 12 37.842 13.154 39.961 15.039L45.618 9.382C42.046 6.053 37.268 4 32 4C24.318 4 17.656 8.337 14.306 14.691Z" fill="#FF3D00"/>
<path d="M32 44C37.166 44 41.86 42.023 45.409 38.808L39.219 33.57C37.1436 35.1483 34.6075 36.002 32 36C26.798 36 22.381 32.683 20.717 28.054L14.195 33.079C17.505 39.556 24.227 44 32 44Z" fill="#4CAF50"/>
<path d="M51.611 20.083H50V20H32V28H43.303C42.5142 30.2164 41.0934 32.1532 39.216 33.571L39.219 33.569L45.409 38.807C44.971 39.205 52 34 52 24C52 22.659 51.862 21.35 51.611 20.083Z" fill="#1976D2"/>
</svg>
