<svg width="34" height="38" viewBox="0 0 34 38" fill="none" xmlns="http://www.w3.org/2000/svg">
<path d="M31.2813 26.9643C30.8716 24.3319 28.8293 21.9687 26.208 21.2206L20.8798 19.6366L20.2312 17.597C21.5949 16.4479 22.4701 14.6817 22.4701 12.7041V9.29646C23.4478 8.87588 24.1343 7.90332 24.1343 6.77331V5.73124C24.1342 2.84675 21.7875 0.5 18.903 0.5H8.90305V6.77323C8.90305 7.90311 9.58929 8.87551 10.5672 9.29617V12.704C10.5672 14.6816 11.4423 16.4479 12.8061 17.5969L12.1575 19.6365L6.8291 21.2207C4.26743 21.9524 2.17491 24.2709 1.75605 26.9645L0 37.5H33.0372L31.2813 26.9643ZM11.6485 7.35259V7.35071C11.3301 7.35071 11.071 7.09164 11.071 6.77323V2.66797H18.903C20.5921 2.66797 21.9663 4.04217 21.9663 5.73124V6.61114C21.3007 5.42736 19.8397 4.74539 18.411 4.86824C17.2366 6.37903 15.3638 7.36668 13.4143 7.35266L11.6485 7.35259ZM12.7352 9.52056H13.4143C15.6296 9.52056 17.7472 8.64397 19.3113 7.0972C19.8842 7.27281 20.3022 7.80678 20.3022 8.43657V12.704C20.3022 14.9632 18.6049 16.8012 16.5187 16.8012C14.4325 16.8012 12.7352 14.9632 12.7352 12.704L12.7352 9.52056ZM16.5186 18.9691C17.1394 18.9691 17.7382 18.8684 18.3013 18.6819L18.8443 20.3897C18.3258 21.1659 17.4819 21.6184 16.5187 21.6184C15.5554 21.6185 14.7115 21.1659 14.193 20.3896L14.736 18.6819C15.299 18.8684 15.8979 18.9691 16.5186 18.9691ZM8.61941 35.332L8.03348 26.615H25.0038L24.4178 35.332H8.61941ZM26.5906 35.332L27.3223 24.447H5.71491L6.4466 35.332H2.55922L3.89447 27.321C4.21041 25.4254 5.60478 23.8466 7.4469 23.2989L12.5286 21.788C13.4564 23.039 14.9158 23.7865 16.5187 23.7865C18.1215 23.7864 19.5809 23.0389 20.5087 21.788L25.5903 23.2986C27.4325 23.8463 28.8269 25.4251 29.1428 27.3207L30.478 35.332H26.5906Z" fill="#242424"/>
</svg>
