<svg width="96" height="96" viewBox="0 0 96 96" fill="none" xmlns="http://www.w3.org/2000/svg">
<rect x="4.5" y="4.50012" width="87" height="87" rx="13.4669" fill="white"/>
<path d="M37.6473 53.4243H46.2448C46.1301 55.9135 45.4587 58.1079 44.2305 60.0075C43.0023 61.9071 41.2992 63.3892 39.1212 64.4536C36.9595 65.5017 34.4049 66.0257 31.4572 66.0257C29.0663 66.0257 26.9292 65.6245 25.0459 64.8221C23.179 64.0196 21.5906 62.8651 20.2805 61.3585C18.9868 59.8519 17.996 58.026 17.3082 55.8807C16.6368 53.7355 16.3011 51.32 16.3011 48.6343V46.6937C16.3011 44.0081 16.6532 41.5926 17.3574 39.4473C18.0779 37.2857 19.0932 35.4516 20.4033 33.945C21.7298 32.422 23.3182 31.2593 25.1687 30.4568C27.0192 29.6544 29.0744 29.2532 31.3343 29.2532C34.4458 29.2532 37.0742 29.81 39.2194 30.9236C41.3647 32.0371 43.0269 33.5683 44.2059 35.5171C45.385 37.4494 46.081 39.652 46.2939 42.1248H37.6964C37.6637 40.782 37.4344 39.6602 37.0087 38.7595C36.5829 37.8425 35.9115 37.1547 34.9944 36.6961C34.0773 36.2376 32.8573 36.0083 31.3343 36.0083C30.2699 36.0083 29.3446 36.2049 28.5586 36.5979C27.7725 36.9909 27.1175 37.6132 26.5935 38.4648C26.0694 39.3163 25.6764 40.4217 25.4144 41.7809C25.1687 43.1238 25.0459 44.745 25.0459 46.6446V48.6343C25.0459 50.5339 25.1606 52.1552 25.3898 53.498C25.6191 54.8408 25.9875 55.938 26.4952 56.7896C27.0029 57.6412 27.6579 58.2716 28.4603 58.681C29.2791 59.0741 30.2781 59.2706 31.4572 59.2706C32.7672 59.2706 33.8726 59.0659 34.7733 58.6565C35.674 58.2307 36.37 57.592 36.8613 56.7405C37.3526 55.8725 37.6146 54.7671 37.6473 53.4243ZM63.8572 57.1089L71.3002 29.7691H80.9539L68.8929 65.5344H62.6536L63.8572 57.1089ZM57.1021 29.7691L64.545 57.1089L65.7978 65.5344H59.4848L47.4975 29.7691H57.1021Z" fill="black"/>
<rect x="4.5" y="4.50012" width="87" height="87" rx="13.4669" stroke="black" stroke-width="9"/>
</svg>
