<svg width="32" height="32" viewBox="0 0 32 32" fill="none" xmlns="http://www.w3.org/2000/svg">
<rect x="1.5" y="1.50012" width="29" height="29" rx="4.48897" fill="white"/>
<path d="M12.5491 18.1415H15.4149C15.3767 18.9712 15.1529 19.7027 14.7435 20.3359C14.3341 20.9691 13.7664 21.4631 13.0404 21.8179C12.3198 22.1673 11.4683 22.342 10.4857 22.342C9.68875 22.342 8.97639 22.2082 8.34864 21.9408C7.72635 21.6733 7.19686 21.2885 6.76016 20.7863C6.32892 20.2841 5.99867 19.6754 5.76941 18.9603C5.5456 18.2452 5.4337 17.4401 5.4337 16.5448V15.898C5.4337 15.0028 5.55106 14.1976 5.78578 13.4825C6.02597 12.762 6.36441 12.1506 6.8011 11.6484C7.24326 11.1407 7.77275 10.7532 8.38958 10.4857C9.00641 10.2182 9.69148 10.0845 10.4448 10.0845C11.4819 10.0845 12.3581 10.2701 13.0731 10.6413C13.7882 11.0125 14.3423 11.5228 14.7353 12.1724C15.1283 12.8166 15.3603 13.5508 15.4313 14.375H12.5655C12.5546 13.9274 12.4781 13.5535 12.3362 13.2533C12.1943 12.9476 11.9705 12.7183 11.6648 12.5655C11.3591 12.4126 10.9524 12.3362 10.4448 12.3362C10.09 12.3362 9.78155 12.4017 9.51953 12.5327C9.25751 12.6637 9.03917 12.8711 8.86449 13.155C8.68981 13.4389 8.5588 13.8073 8.47146 14.2604C8.38958 14.708 8.34864 15.2484 8.34864 15.8816V16.5448C8.34864 17.1781 8.38685 17.7185 8.46327 18.1661C8.5397 18.6137 8.66252 18.9794 8.83174 19.2633C9.00095 19.5471 9.2193 19.7573 9.48678 19.8938C9.75971 20.0248 10.0927 20.0903 10.4857 20.0903C10.9224 20.0903 11.2909 20.022 11.5911 19.8856C11.8913 19.7436 12.1233 19.5308 12.2871 19.2469C12.4509 18.9576 12.5382 18.5891 12.5491 18.1415ZM21.2857 19.3697L23.7667 10.2564H26.9846L22.9643 22.1782H20.8845L21.2857 19.3697ZM19.034 10.2564L21.515 19.3697L21.9326 22.1782H19.8283L15.8325 10.2564H19.034Z" fill="black"/>
<rect x="1.5" y="1.50012" width="29" height="29" rx="4.48897" stroke="black" stroke-width="3"/>
</svg>
