<svg width="16" height="16" viewBox="0 0 16 16" fill="none" xmlns="http://www.w3.org/2000/svg">
<rect x="0.75" y="0.75" width="14.5" height="14.5" rx="2.24448" fill="white"/>
<path d="M6.27452 9.0707H7.70743C7.68832 9.48556 7.57642 9.85129 7.37172 10.1679C7.16702 10.4845 6.88317 10.7315 6.52016 10.9089C6.15989 11.0836 5.73411 11.1709 5.24283 11.1709C4.84434 11.1709 4.48816 11.1041 4.17429 10.9703C3.86314 10.8366 3.5984 10.6442 3.38005 10.3931C3.16443 10.142 2.99931 9.83764 2.88467 9.4801C2.77277 9.12256 2.71682 8.71998 2.71682 8.27236V7.94894C2.71682 7.50132 2.7755 7.09874 2.89286 6.7412C3.01295 6.38093 3.18217 6.07524 3.40052 5.82414C3.6216 5.57031 3.88634 5.37653 4.19476 5.24279C4.50318 5.10905 4.84571 5.04218 5.22236 5.04218C5.74094 5.04218 6.179 5.13498 6.53654 5.32057C6.89408 5.50617 7.17111 5.76136 7.36763 6.08616C7.56414 6.40822 7.68014 6.77532 7.71562 7.18745H6.28271C6.27725 6.96364 6.23904 6.77668 6.16808 6.62657C6.09712 6.47372 5.98521 6.35909 5.83237 6.28267C5.67953 6.20625 5.47619 6.16804 5.22236 6.16804C5.04495 6.16804 4.89074 6.20079 4.75973 6.26629C4.62873 6.3318 4.51955 6.43551 4.43221 6.57744C4.34487 6.71936 4.27937 6.9036 4.2357 7.13013C4.19476 7.35394 4.17429 7.62414 4.17429 7.94075V8.27236C4.17429 8.58897 4.1934 8.85917 4.23161 9.08298C4.26982 9.30679 4.33123 9.48965 4.41584 9.63158C4.50045 9.7735 4.60962 9.87858 4.74336 9.94682C4.87983 10.0123 5.04632 10.0451 5.24283 10.0451C5.46118 10.0451 5.64541 10.011 5.79552 9.94272C5.94564 9.87176 6.06163 9.76532 6.14351 9.62339C6.22539 9.47874 6.26906 9.2945 6.27452 9.0707ZM10.6428 9.6848L11.8833 5.12816H13.4923L11.4821 11.0891H10.4422L10.6428 9.6848ZM9.51699 5.12816L10.7575 9.6848L10.9663 11.0891H9.91411L7.91623 5.12816H9.51699Z" fill="black"/>
<rect x="0.75" y="0.75" width="14.5" height="14.5" rx="2.24448" stroke="black" stroke-width="1.5"/>
</svg>
