<svg width="24" height="24" viewBox="0 0 24 24" fill="none" xmlns="http://www.w3.org/2000/svg">
<path d="M7 7.41667C7 6.77573 7.25461 6.16104 7.70783 5.70783C8.16104 5.25461 8.77573 5 9.41667 5H11.8333V9.83333H9.41667C8.77573 9.83333 8.16104 9.57872 7.70783 9.12551C7.25461 8.6723 7 8.05761 7 7.41667Z" stroke="white" stroke-width="1.38095" stroke-linecap="round" stroke-linejoin="round"/>
<path d="M11.834 5H14.2507C14.568 5 14.8823 5.06251 15.1755 5.18396C15.4687 5.30541 15.7351 5.48342 15.9595 5.70783C16.1839 5.93223 16.3619 6.19864 16.4834 6.49185C16.6048 6.78505 16.6673 7.09931 16.6673 7.41667C16.6673 7.73403 16.6048 8.04828 16.4834 8.34149C16.3619 8.63469 16.1839 8.9011 15.9595 9.12551C15.7351 9.34992 15.4687 9.52793 15.1755 9.64938C14.8823 9.77082 14.568 9.83333 14.2507 9.83333H11.834V5Z" stroke="white" stroke-width="1.38095" stroke-linecap="round" stroke-linejoin="round"/>
<path d="M11.834 12.2507C11.834 11.9333 11.8965 11.619 12.0179 11.3258C12.1394 11.0326 12.3174 10.7662 12.5418 10.5418C12.7662 10.3174 13.0326 10.1394 13.3258 10.0179C13.619 9.89649 13.9333 9.83398 14.2507 9.83398C14.568 9.83398 14.8823 9.89649 15.1755 10.0179C15.4687 10.1394 15.7351 10.3174 15.9595 10.5418C16.1839 10.7662 16.3619 11.0326 16.4834 11.3258C16.6048 11.619 16.6673 11.9333 16.6673 12.2507C16.6673 12.568 16.6048 12.8823 16.4834 13.1755C16.3619 13.4687 16.1839 13.7351 15.9595 13.9595C15.7351 14.1839 15.4687 14.3619 15.1755 14.4834C14.8823 14.6048 14.568 14.6673 14.2507 14.6673C13.9333 14.6673 13.619 14.6048 13.3258 14.4834C13.0326 14.3619 12.7662 14.1839 12.5418 13.9595C12.3174 13.7351 12.1394 13.4687 12.0179 13.1755C11.8965 12.8823 11.834 12.568 11.834 12.2507V12.2507Z" stroke="white" stroke-width="1.38095" stroke-linecap="round" stroke-linejoin="round"/>
<path d="M7 17.0827C7 16.4417 7.25461 15.8271 7.70783 15.3738C8.16104 14.9206 8.77573 14.666 9.41667 14.666H11.8333V17.0827C11.8333 17.7236 11.5787 18.3383 11.1255 18.7915C10.6723 19.2447 10.0576 19.4993 9.41667 19.4993C8.77573 19.4993 8.16104 19.2447 7.70783 18.7915C7.25461 18.3383 7 17.7236 7 17.0827Z" stroke="white" stroke-width="1.38095" stroke-linecap="round" stroke-linejoin="round"/>
<path d="M7 12.2507C7 11.6097 7.25461 10.995 7.70783 10.5418C8.16104 10.0886 8.77573 9.83398 9.41667 9.83398H11.8333V14.6673H9.41667C8.77573 14.6673 8.16104 14.4127 7.70783 13.9595C7.25461 13.5063 7 12.8916 7 12.2507Z" stroke="white" stroke-width="1.38095" stroke-linecap="round" stroke-linejoin="round"/>
</svg>
