<svg width="49" height="48" viewBox="0 0 49 48" fill="none" xmlns="http://www.w3.org/2000/svg">
<path d="M44.4225 20.083H42.8115V20H24.8115V28H36.1145C34.4655 32.657 30.0345 36 24.8115 36C18.1845 36 12.8115 30.627 12.8115 24C12.8115 17.373 18.1845 12 24.8115 12C27.8705 12 30.6535 13.154 32.7725 15.039L38.4295 9.382C34.8575 6.053 30.0795 4 24.8115 4C13.7665 4 4.81152 12.955 4.81152 24C4.81152 35.045 13.7665 44 24.8115 44C35.8565 44 44.8115 35.045 44.8115 24C44.8115 22.659 44.6735 21.35 44.4225 20.083Z" fill="#FFC107"/>
<path d="M7.11752 14.691L13.6885 19.51C15.4665 15.108 19.7725 12 24.8115 12C27.8705 12 30.6535 13.154 32.7725 15.039L38.4295 9.382C34.8575 6.053 30.0795 4 24.8115 4C17.1295 4 10.4675 8.337 7.11752 14.691Z" fill="#FF3D00"/>
<path d="M24.8115 44C29.9775 44 34.6715 42.023 38.2205 38.808L32.0305 33.57C29.9551 35.1484 27.419 36.0021 24.8115 36C19.6095 36 15.1925 32.683 13.5285 28.054L7.00653 33.079C10.3165 39.556 17.0385 44 24.8115 44Z" fill="#4CAF50"/>
<path d="M44.4225 20.083H42.8115V20H24.8115V28H36.1145C35.3257 30.2164 33.9049 32.1532 32.0275 33.571L32.0305 33.569L38.2205 38.807C37.7825 39.205 44.8115 34 44.8115 24C44.8115 22.659 44.6735 21.35 44.4225 20.083Z" fill="#1976D2"/>
</svg>
