<svg width="34" height="34" viewBox="0 0 34 34" fill="none" xmlns="http://www.w3.org/2000/svg">
<rect x="0.800781" y="0.337891" width="33" height="33" rx="16.5" fill="#F2A718"/>
<path d="M9.63608 17.8133C9.63608 18.1189 9.67683 18.4041 9.75831 18.6689C9.84997 18.9337 9.98238 19.1629 10.1555 19.3564C10.3287 19.5499 10.5477 19.7027 10.8125 19.8147C11.0875 19.9268 11.4032 19.9828 11.7597 19.9828C12.1671 19.9828 12.5032 19.9318 12.768 19.83C13.0328 19.718 13.2467 19.5703 13.4097 19.3869C13.5727 19.2036 13.6847 18.9948 13.7458 18.7605C13.8171 18.5161 13.8528 18.2615 13.8528 17.9967V11.3661H16.2972V17.6758C16.2972 19.1629 15.9254 20.3036 15.1819 21.098C14.4486 21.8823 13.3129 22.2744 11.775 22.2744C10.9296 22.2744 10.2115 22.1624 9.62081 21.9383C9.04025 21.7143 8.56664 21.4036 8.19997 21.0064C7.84349 20.6092 7.58377 20.1355 7.42081 19.5855C7.26803 19.0355 7.19164 18.4397 7.19164 17.798V11.3661H9.63608V17.8133ZM21.1704 16.6217L17.7635 11.3661H20.7121L23.0191 15.1244L25.4788 11.3661H28.3816L24.7454 16.5147L28.5191 22.0605H25.5552L22.9579 18.0425L20.4524 22.0605H17.5649L21.1704 16.6217Z" fill="black"/>
</svg>
