<svg width="25" height="25" viewBox="0 0 25 25" fill="none" xmlns="http://www.w3.org/2000/svg">
<path d="M11.7889 4.50269C12.1558 3.75952 13.2155 3.75952 13.5824 4.50269L15.5432 8.47515C15.6887 8.77 15.9699 8.97446 16.2953 9.02201L20.6819 9.66318C21.5018 9.78302 21.8286 10.7908 21.235 11.369L18.0624 14.459C17.8266 14.6888 17.7189 15.0199 17.7746 15.3444L18.5231 19.7087C18.6632 20.5256 17.8056 21.1486 17.072 20.7628L13.1511 18.7008C12.8597 18.5476 12.5116 18.5476 12.2202 18.7008L8.29932 20.7628C7.56569 21.1486 6.70814 20.5256 6.84826 19.7087L7.59677 15.3444C7.65243 15.0199 7.54477 14.6888 7.3089 14.459L4.13637 11.369C3.54277 10.7908 3.86956 9.78302 4.68947 9.66318L9.07605 9.02201C9.40141 8.97446 9.68259 8.77 9.82813 8.47515L11.7889 4.50269Z" fill="#268AFF"/>
</svg>
