<svg width="16" height="16" viewBox="0 0 16 16" fill="none" xmlns="http://www.w3.org/2000/svg">
<path d="M11.4676 2.92132L13.023 1.77478C11.6013 0.623512 9.82667 -0.0031958 7.99731 1.22553e-05V0.000686444C6.94755 -0.000200785 5.90798 0.206085 4.93811 0.607732C4.02591 0.985497 3.19227 1.52909 2.47919 2.21041C1.7209 2.93183 1.11144 3.79592 0.686227 4.7538C0.232793 5.77526 -0.000995033 6.8806 3.18375e-06 7.99819C2.54851e-06 7.99942 2.23041e-06 8.00066 2.23041e-06 8.00189C-0.000783051 9.05223 0.205801 10.0923 0.607908 11.0626C0.974597 11.9474 1.4973 12.7583 2.15036 13.4568C2.88382 14.245 3.76953 14.8769 4.75438 15.314C5.77632 15.7676 6.88218 16.0013 8.00028 16L8.00051 16C9.05084 16.0011 10.091 15.7946 11.0612 15.3925C11.9089 15.0412 12.6886 14.5466 13.3666 13.9312L13.3678 13.9325C14.1976 13.1833 14.8608 12.268 15.3143 11.246C15.7677 10.224 16.0013 9.11813 15.9999 8.00005C16.0009 7.51939 15.9589 7.03957 15.8743 6.56641L14.1524 7.83544V8.00005C14.1528 8.85965 13.9726 9.70977 13.6235 10.4953C13.316 11.1872 12.8834 11.8154 12.3484 12.3487L12.3477 12.348C12.2833 12.4127 12.2175 12.4759 12.1504 12.5375C12.1422 12.5449 12.134 12.5524 12.1258 12.5598C11.6047 13.0329 11.0055 13.4135 10.3541 13.6838C9.60808 13.9935 8.80824 14.1527 8.00051 14.1523L7.96976 14.1523C7.88532 14.1519 7.80097 14.1498 7.71678 14.1459C7.70876 14.1454 7.70073 14.1448 7.69272 14.1442L7.69268 14.1448C6.93845 14.1072 6.19668 13.9307 5.50496 13.6233C4.81307 13.3158 4.18484 12.8833 3.65141 12.3484L3.65239 12.3474C3.08008 11.7774 2.62606 11.0999 2.31644 10.3538C2.00681 9.60772 1.84768 8.80779 1.84818 8.00003C1.84818 7.99621 1.84819 7.99227 1.84819 7.98845C1.84833 7.91269 1.84983 7.8373 1.85269 7.76223C1.88251 6.98401 2.06023 6.21776 2.37713 5.50475C2.68455 4.81307 3.11691 4.18505 3.65164 3.65181L3.65247 3.65264C4.22249 3.08011 4.90006 2.62591 5.64622 2.31616C6.39238 2.0064 7.19238 1.8472 8.0003 1.84771C8.10331 1.84771 8.20568 1.85148 8.30745 1.8565L8.30752 1.85514C9.43721 1.91105 10.5315 2.27913 11.4676 2.92132Z" fill="url(#paint0_linear_2386_37259)"/>
<path d="M15.2891 4.69928C15.0322 4.13373 14.7105 3.59993 14.3304 3.10858L8.00186 7.77449L4.95634 5.86529V8.16215L8.00186 10.0714L15.2891 4.69928Z" fill="url(#paint1_linear_2386_37259)"/>
<defs>
<linearGradient id="paint0_linear_2386_37259" x1="0.688517" y1="8.22357" x2="2.88555" y2="2.50858" gradientUnits="userSpaceOnUse">
<stop offset="0.07" stop-color="#A2CC39"/>
<stop offset="0.26" stop-color="#81C45E"/>
<stop offset="0.92" stop-color="#0FA7DF"/>
</linearGradient>
<linearGradient id="paint1_linear_2386_37259" x1="0.688517" y1="8.22357" x2="2.88555" y2="2.50858" gradientUnits="userSpaceOnUse">
<stop offset="0.07" stop-color="#A2CC39"/>
<stop offset="0.26" stop-color="#81C45E"/>
<stop offset="0.92" stop-color="#0FA7DF"/>
</linearGradient>
</defs>
</svg>
