<svg width="48" height="48" viewBox="0 0 48 48" fill="none" xmlns="http://www.w3.org/2000/svg">
<path d="M32 32C36.4183 32 40 28.4183 40 24C40 19.5817 36.4183 16 32 16C27.5817 16 24 19.5817 24 24C24 28.4183 27.5817 32 32 32Z" fill="#19BCFE"/>
<path fill-rule="evenodd" clip-rule="evenodd" d="M16 48C18.1217 48 20.1566 47.1571 21.6569 45.6569C23.1571 44.1566 24 42.1217 24 40V32H16C13.8783 32 11.8434 32.8429 10.3431 34.3431C8.84285 35.8434 8 37.8783 8 40C8 42.1217 8.84285 44.1566 10.3431 45.6569C11.8434 47.1571 13.8783 48 16 48Z" fill="#09CF83"/>
<path fill-rule="evenodd" clip-rule="evenodd" d="M16 32H24V16H16C13.8783 16 11.8434 16.8429 10.3431 18.3431C8.84285 19.8434 8 21.8783 8 24C8 26.1217 8.84285 28.1566 10.3431 29.6569C11.8434 31.1571 13.8783 32 16 32Z" fill="#A259FF"/>
<path fill-rule="evenodd" clip-rule="evenodd" d="M16 16H24V0H16C13.8783 0 11.8434 0.842855 10.3431 2.34315C8.84285 3.84344 8 5.87827 8 8C8 10.1217 8.84285 12.1566 10.3431 13.6569C11.8434 15.1571 13.8783 16 16 16Z" fill="#F24E1E"/>
<path fill-rule="evenodd" clip-rule="evenodd" d="M32 16H24V0H32C34.1217 0 36.1566 0.842855 37.6569 2.34315C39.1571 3.84344 40 5.87827 40 8C40 10.1217 39.1571 12.1566 37.6569 13.6569C36.1566 15.1571 34.1217 16 32 16Z" fill="#FF7262"/>
</svg>
