<svg width="30" height="30" viewBox="0 0 30 30" fill="none" xmlns="http://www.w3.org/2000/svg">
<path d="M4.82913 5.92459C4.56853 5.92459 4.34921 6.01609 4.23857 6.19504C4.12448 6.37969 4.14175 6.61774 4.26349 6.85864L7.19118 11.9228C7.19613 11.9324 7.19613 11.9385 7.19118 11.9474L2.59046 20.06C2.47052 20.2988 2.47637 20.5386 2.59046 20.7237C2.70094 20.9018 2.89565 21.0186 3.15655 21.0186H7.48646C8.13375 21.0186 8.44614 20.5821 8.66741 20.1831C8.66741 20.1831 13.1668 12.2316 13.342 11.9229C13.3243 11.8944 10.3652 6.73594 10.3652 6.73594C10.1492 6.35239 9.82389 5.92444 9.15979 5.92444H4.82913V5.92459Z" fill="#005A5F"/>
<path d="M23.0197 0.000449753C22.3729 0.000449753 22.0926 0.40755 21.8604 0.82455C21.8604 0.82455 12.5323 17.3545 12.2249 17.8972C12.2406 17.9266 18.3771 29.1759 18.3771 29.1759C18.5921 29.5596 18.9237 30 19.5871 30H23.9119C24.1728 30 24.3766 29.9019 24.4865 29.7235C24.6021 29.539 24.5988 29.295 24.4777 29.0548L18.3734 17.9106C18.3705 17.9064 18.369 17.9015 18.369 17.8964C18.369 17.8914 18.3705 17.8864 18.3734 17.8822L27.9602 0.944249C28.0807 0.705149 28.0833 0.46125 27.9693 0.27645C27.8588 0.0982503 27.6544 0 27.3935 0H23.0193V0.000299835H23.0197V0.000449753Z" fill="#D4D600"/>
</svg>
