<svg width="52" height="52" viewBox="0 0 52 52" fill="none" xmlns="http://www.w3.org/2000/svg">
<g clip-path="url(#clip0_1954_13837)">
<path d="M51.0193 23.6833L28.3156 0.980881C27.0089 -0.326635 24.8883 -0.326635 23.58 0.980881L18.8654 5.69541L24.846 11.676C26.2358 11.2064 27.8295 11.5214 28.9374 12.6293C30.0505 13.7442 30.3633 15.3516 29.8823 16.7458L35.646 22.5097C37.0405 22.0293 38.6494 22.3401 39.7631 23.4556C41.3197 25.0116 41.3197 27.5334 39.7631 29.0903C38.2062 30.6475 35.6844 30.6475 34.1266 29.0903C32.9558 27.9183 32.6666 26.1988 33.2593 24.7565L27.8842 19.3814L27.8836 33.5264C28.2732 33.719 28.6291 33.9735 28.9374 34.28C30.4939 35.8359 30.4939 38.3579 28.9374 39.9161C27.3804 41.4724 24.8574 41.4724 23.3027 39.9161C21.7462 38.3579 21.7462 35.8361 23.3027 34.2802C23.6757 33.907 24.119 33.6114 24.607 33.4106V19.1338C24.1183 18.9343 23.6748 18.6386 23.3027 18.2642C22.1234 17.0865 21.8398 15.356 22.4441 13.908L16.5486 8.01185L0.981094 23.5783C-0.327031 24.8871 -0.327031 27.0079 0.981094 28.3156L23.6852 51.0185C24.9923 52.3262 27.1125 52.3262 28.4212 51.0185L51.0191 28.421C52.3268 27.1129 52.3268 24.9909 51.0191 23.6833" fill="#DE4C36"/>
</g>
<defs>
<clipPath id="clip0_1954_13837">
<rect width="52" height="52" fill="white"/>
</clipPath>
</defs>
</svg>
