<svg width="30" height="30" viewBox="0 0 30 30" fill="none" xmlns="http://www.w3.org/2000/svg">
<path fill-rule="evenodd" clip-rule="evenodd" d="M7.82116 26.5832C9.88782 27.8492 12.3139 28.4821 14.7399 28.4821V28.482C17.2559 28.482 19.7717 27.7586 21.8385 26.4022C28.3078 22.4234 30.1948 14.0135 26.2413 7.50275C22.2877 0.991965 13.9312 -0.907058 7.46178 3.0717C0.992315 7.05059 -0.894654 15.551 3.05898 21.9713L3.41836 22.514L2.0706 27.6683L7.28208 26.3119L7.82116 26.5832ZM21.6587 17.9926L22.6471 18.4447C22.8267 18.5351 22.9167 18.6256 22.9167 18.6256V19.2586L22.9163 19.2605C22.8265 19.7119 22.7367 20.1633 22.5573 20.5245C22.4674 20.7054 22.2877 20.8863 22.108 21.0671C22.0181 21.1575 21.9283 21.2253 21.8384 21.2931C21.7486 21.3609 21.6587 21.4287 21.5689 21.5191L21.3891 21.7001C21.2882 21.8017 21.1873 21.8462 21.0705 21.8977C20.9793 21.938 20.8784 21.9825 20.7602 22.0618C20.4007 22.2426 19.8616 22.4235 19.4123 22.4235H18.5139C18.379 22.3782 18.2216 22.3556 18.0643 22.333C17.9071 22.3104 17.75 22.2878 17.6153 22.2426C15.1892 21.6096 13.0328 20.4341 11.1458 18.8063C11.0285 18.6292 10.8729 18.4907 10.7039 18.3403C10.6141 18.2604 10.5206 18.1771 10.427 18.0829L10.0676 17.7212C8.62984 16.3649 7.55169 14.8275 6.743 13.1095L6.65309 12.8381C6.38349 12.2051 6.2038 11.4816 6.2038 10.7583C6.2038 9.76359 6.56318 8.7689 7.19217 7.95505C7.28202 7.86456 7.34942 7.77414 7.41682 7.68372C7.48422 7.5933 7.55162 7.50288 7.64147 7.4124C7.73138 7.36719 7.82129 7.29932 7.9112 7.23146C8.00098 7.16369 8.09076 7.09593 8.18055 7.05071L8.27046 6.96036C8.36037 6.96036 8.45022 6.93774 8.54006 6.91512C8.62991 6.8925 8.71976 6.86987 8.80967 6.86987H9.79804C10.0676 6.96036 10.2472 7.05072 10.427 7.32204C10.6965 7.86456 11.7748 10.3061 11.8646 10.7583C11.9545 11.0296 11.8646 11.3913 11.6849 11.6626C11.595 11.753 11.5277 11.866 11.4603 11.979C11.3929 12.0921 11.3255 12.2051 11.2356 12.2956C10.9661 12.5668 10.6067 13.019 10.6067 13.019C10.5168 13.1095 10.5168 13.2903 10.5168 13.4711C10.5512 13.5403 10.5724 13.5962 10.5906 13.644C10.6198 13.7211 10.6411 13.7769 10.6965 13.8328L10.7864 14.0137C11.2356 14.8275 11.8646 15.551 12.4936 16.184C12.5834 16.2744 12.6957 16.3649 12.8081 16.4553C12.9204 16.5457 13.0327 16.6361 13.1226 16.7265C13.8415 17.4499 14.7399 17.9926 15.7283 18.4447L16.1776 18.6256C16.2675 18.7159 16.4472 18.8064 16.537 18.8064H16.6269C16.8066 18.8064 16.9863 18.7159 17.0762 18.5351C18.3342 17.0882 18.4239 16.9979 18.4239 16.9979C18.6036 16.9074 18.7833 16.8169 19.0529 16.8169C19.0979 16.8169 19.1428 16.8395 19.1877 16.8621C19.2327 16.8848 19.2776 16.9074 19.3225 16.9074C20.2211 17.3596 21.6587 17.9926 21.6587 17.9926Z" fill="#00E676"/>
</svg>
