<svg width="30" height="30" viewBox="0 0 30 30" fill="none" xmlns="http://www.w3.org/2000/svg">
<path d="M30 5.00018H0V25.0004H30V5.00018Z" fill="#F0F0F0"/>
<path d="M16.875 5.00006H13.125V13.125H0V16.875H13.125V25H16.875V16.875H30V13.125H16.875V5.00006Z" fill="#D80027"/>
<path d="M23.0734 18.4781L30.0001 22.3263V18.4781H23.0734Z" fill="#0052B4"/>
<path d="M18.2609 18.4781L30 24.9999V23.1557L21.5805 18.4781H18.2609Z" fill="#0052B4"/>
<path d="M26.8731 24.9998L18.2609 20.2148V24.9998H26.8731Z" fill="#0052B4"/>
<path d="M18.2609 18.4781L30 24.9999V23.1557L21.5805 18.4781H18.2609Z" fill="#F0F0F0"/>
<path d="M18.2609 18.4781L30 24.9999V23.1557L21.5805 18.4781H18.2609Z" fill="#D80027"/>
<path d="M5.29341 18.4781L0 21.419V18.4781H5.29341Z" fill="#0052B4"/>
<path d="M11.7391 19.3074V24.9999H1.49361L11.7391 19.3074Z" fill="#0052B4"/>
<path d="M8.4195 18.4781L0 23.1557V24.9999L11.7391 18.4781H8.4195Z" fill="#D80027"/>
<path d="M6.92665 11.5217L0 7.67352V11.5217H6.92665Z" fill="#0052B4"/>
<path d="M11.7391 11.5218L0 5.00006V6.84424L8.4195 11.5218H11.7391Z" fill="#0052B4"/>
<path d="M3.12691 5.00012L11.7391 9.78512V5.00012H3.12691Z" fill="#0052B4"/>
<path d="M11.7391 11.5218L0 5.00006V6.84424L8.4195 11.5218H11.7391Z" fill="#F0F0F0"/>
<path d="M11.7391 11.5218L0 5.00006V6.84424L8.4195 11.5218H11.7391Z" fill="#D80027"/>
<path d="M24.7066 11.5218L30 8.58099V11.5218H24.7066Z" fill="#0052B4"/>
<path d="M18.2609 10.6925V5.00006H28.5064L18.2609 10.6925Z" fill="#0052B4"/>
<path d="M21.5805 11.5218L30 6.84424V5.00006L18.2609 11.5218H21.5805Z" fill="#D80027"/>
</svg>
