<svg width="30" height="30" viewBox="0 0 30 30" fill="none" xmlns="http://www.w3.org/2000/svg">
<path d="M15 1C7.26795 1 1 7.26795 1 15C1 22.732 7.26795 29 15 29C22.732 29 29 22.732 29 15C29 7.26795 22.732 1 15 1Z" fill="#40B3E0"/>
<path d="M21.8121 9.05338L19.3115 21.6609C19.3115 21.6609 18.9618 22.5353 18.0001 22.1156L12.2297 17.6916L10.1314 16.6775L6.59929 15.4883C6.59929 15.4883 6.05722 15.2961 6.00472 14.8764C5.95222 14.4567 6.61679 14.2294 6.61679 14.2294L20.6579 8.72132C20.6579 8.72132 21.812 8.21426 21.812 9.0536" fill="white"/>
<path d="M11.7863 21.5184C11.7863 21.5184 11.6178 21.5026 11.4078 20.8381C11.1981 20.1736 10.1314 16.6764 10.1314 16.6764L18.6121 11.2908C18.6121 11.2908 19.1018 10.9935 19.0843 11.2908C19.0843 11.2908 19.1717 11.3433 18.9093 11.5881C18.6471 11.833 12.2473 17.5858 12.2473 17.5858" fill="#D2E5F1"/>
<path d="M14.4424 19.388L12.16 21.469C12.16 21.469 11.9815 21.6044 11.7864 21.5195L12.2235 17.6542" fill="#B5CFE4"/>
</svg>
