<svg width="30" height="30" viewBox="0 0 30 30" fill="none" xmlns="http://www.w3.org/2000/svg">
<path d="M14.6193 8.12534C16.615 8.12534 18.4956 9.01008 19.8738 10.3932V10.3972C19.8738 9.73307 20.3207 9.23065 20.9383 9.23065H21.0951C22.0697 9.23065 22.265 10.1497 22.265 10.4397L22.2691 20.7617C22.2013 21.4381 22.9675 21.7878 23.3932 21.3532C25.0475 19.6515 27.0302 12.5964 22.363 8.51175C18.0104 4.69911 12.1685 5.32897 9.06247 7.46934C5.76123 9.75023 3.65109 14.7883 5.70078 19.5232C7.93918 24.6855 14.3382 26.2254 18.1468 24.6895C20.0748 23.911 20.9636 26.5138 18.9597 27.3658C15.9394 28.6541 7.52255 28.5226 3.59145 21.7151C0.935589 17.1165 1.0761 9.02724 8.12299 4.83635C13.5091 1.62825 20.6156 2.51707 24.8996 6.9898C29.3764 11.67 29.1174 20.4268 24.7468 23.8309C22.7674 25.379 19.8281 23.8734 19.8493 21.6179L19.8272 20.8826C18.4491 22.2477 16.615 23.0483 14.6193 23.0483C10.671 23.0483 7.19496 19.5714 7.19496 15.6273C7.19496 11.6406 10.671 8.12697 14.6193 8.12697V8.12534ZM19.5854 15.3422C19.4359 12.4527 17.2915 10.7126 14.7001 10.7126H14.6021C11.6154 10.7126 9.9562 13.0654 9.9562 15.7327C9.9562 18.7235 11.9601 20.6122 14.5899 20.6122C17.5251 20.6122 19.4523 18.4645 19.5928 15.9238L19.5854 15.3422Z" fill="#40B3E0"/>
</svg>
