<svg width="30" height="31" viewBox="0 0 30 31" fill="none" xmlns="http://www.w3.org/2000/svg">
<path d="M24.1532 24.6536H20.3009V18.6205C20.3009 17.1818 20.2752 15.3298 18.2972 15.3298C16.2908 15.3298 15.9837 16.8974 15.9837 18.5158V24.6532H12.1315V12.2467H15.8297V13.9422H15.8815C16.2516 13.3094 16.7864 12.7888 17.429 12.4358C18.0715 12.0829 18.7978 11.9109 19.5304 11.9381C23.435 11.9381 24.1548 14.5064 24.1548 17.8476L24.1532 24.6536ZM7.78459 10.5509C6.5499 10.5511 5.5488 9.55033 5.54859 8.31563C5.54839 7.08094 6.54909 6.07984 7.78378 6.07963C9.01848 6.07933 10.0196 7.08013 10.0198 8.31482C10.0199 8.90775 9.78446 9.47643 9.36528 9.89578C8.94611 10.3151 8.37752 10.5508 7.78459 10.5509ZM9.71083 24.6537H5.8544V12.2467H9.71073V24.6536L9.71083 24.6537ZM26.0738 2.50189H3.91862C2.87151 2.49011 2.0128 3.32892 2 4.37602V26.6236C2.01239 27.6712 2.871 28.5108 3.91852 28.4999H26.0738C27.1235 28.5129 27.9855 27.6732 28 26.6236V4.3743C27.9851 3.32516 27.123 2.48645 26.0738 2.50017" fill="#0A66C2"/>
</svg>
