<svg width="2215" height="3534" viewBox="0 0 2215 3534" fill="none" xmlns="http://www.w3.org/2000/svg">
<g opacity="0.5">
<path opacity="0.5" d="M1279.53 870.331C1386.51 809.689 1519.02 887.6 1518.05 1010.57C1517.08 1133.54 1383.35 1209.35 1277.34 1147.02C1171.33 1084.69 1172.55 930.973 1279.53 870.331Z" fill="#65A0F0"/>
<path opacity="0.5" d="M735.532 2204.62L735.71 2205.09L735.531 2204.62L529.713 2283.53C513.089 2289.9 494.47 2288.36 479.123 2279.34L289.107 2167.62C273.76 2158.6 263.357 2143.07 260.843 2125.45L229.717 1907.23C227.204 1889.6 232.853 1871.79 245.064 1858.84L244.702 1858.5L245.064 1858.84L396.267 1698.45L395.903 1698.11L396.267 1698.45C408.479 1685.49 425.926 1678.81 443.668 1680.28L663.339 1698.49C681.077 1699.97 697.19 1709.43 707.105 1724.22L829.825 1907.32C839.74 1922.11 842.378 1940.6 836.994 1957.58L770.354 2167.69C764.97 2184.66 752.159 2198.26 735.532 2204.62Z" stroke="#6864E8"/>
<path opacity="0.5" d="M1942.06 2852.29L2064.78 3035.39C2072.23 3046.52 2074.22 3060.43 2070.17 3073.19L2003.53 3283.31C1999.49 3296.07 1989.85 3306.3 1977.34 3311.09L1771.52 3389.99C1759.02 3394.78 1745.01 3393.62 1733.47 3386.84L1543.46 3275.12C1531.91 3268.33 1524.09 3256.65 1522.2 3243.4L1491.07 3025.18C1489.18 3011.93 1493.43 2998.53 1502.61 2988.79L1653.82 2828.4C1663 2818.65 1676.12 2813.62 1689.47 2814.73L1909.14 2832.94C1922.49 2834.05 1934.6 2841.17 1942.06 2852.29Z" stroke="#F5BDA8" stroke-width="30"/>
</g>
</svg>
